<svg xmlns="http://www.w3.org/2000/svg" viewBox="0 0 64 64" role="img" aria-label="정부지원사업 아이콘">
  <defs>
    <linearGradient id="bg" x1="0" y1="0" x2="1" y2="1">
      <stop offset="0%" stop-color="#0f5d73" />
      <stop offset="100%" stop-color="#083344" />
    </linearGradient>
    <linearGradient id="coin" x1="0" y1="0" x2="1" y2="1">
      <stop offset="0%" stop-color="#ffd166" />
      <stop offset="100%" stop-color="#f59e0b" />
    </linearGradient>
  </defs>
  <rect width="64" height="64" rx="16" fill="url(#bg)" />
  <path d="M18 18h16l12 12v16a6 6 0 0 1-6 6H18a6 6 0 0 1-6-6V24a6 6 0 0 1 6-6Z" fill="#f8f4ec" />
  <path d="M34 18v10a4 4 0 0 0 4 4h10" fill="#d9d4ca" />
  <circle cx="42" cy="44" r="13" fill="url(#coin)" />
  <path d="M41.5 35.5l-2 17m6-17l-2 17M35 40h13m-13 7h12" stroke="#7c3a00" stroke-linecap="round" stroke-width="2.8" />
</svg>
